<?xml version="1.0" encoding="UTF-8" standalone="no"?>
<svg
   xmlns:dc="http://purl.org/dc/elements/1.1/"
   xmlns:cc="http://creativecommons.org/ns#"
   xmlns:rdf="http://www.w3.org/1999/02/22-rdf-syntax-ns#"
   xmlns:svg="http://www.w3.org/2000/svg"
   xmlns="http://www.w3.org/2000/svg"
   xmlns:sodipodi="http://sodipodi.sourceforge.net/DTD/sodipodi-0.dtd"
   xmlns:inkscape="http://www.inkscape.org/namespaces/inkscape"
   version="1.1"
   id="Layer_1"
   x="0px"
   y="0px"
   width="475"
   height="338"
   viewBox="0 0 475.0000000000002 337.9999999999992"
   enable-background="new 0 0 578 462"
   xml:space="preserve"
   inkscape:version="0.91 r13725"
   sodipodi:docname="Duck.svg"><metadata
     id="metadata8"><rdf:RDF><cc:Work
         rdf:about=""><dc:format>image/svg+xml</dc:format><dc:type
           rdf:resource="http://purl.org/dc/dcmitype/StillImage" /><dc:date>2016</dc:date><dc:creator><cc:Agent><dc:title>Lazur</dc:title></cc:Agent></dc:creator><dc:description>Original raster images of this series were uploaded by NicholasJudy456 to openclipart embedded in svg-s (416 in total).  This is one of the refixes upon request by the original author.</dc:description><dc:contributor><cc:Agent><dc:title /></cc:Agent></dc:contributor><dc:title></dc:title></cc:Work></rdf:RDF></metadata><defs
     id="defs6" /><sodipodi:namedview
     pagecolor="#ffffff"
     bordercolor="#666666"
     borderopacity="1"
     objecttolerance="10"
     gridtolerance="10"
     guidetolerance="10"
     inkscape:pageopacity="0"
     inkscape:pageshadow="2"
     inkscape:window-width="1366"
     inkscape:window-height="705"
     id="namedview4"
     showgrid="false"
     borderlayer="true"
     inkscape:showpageshadow="false"
     inkscape:zoom="1.642011834319527"
     inkscape:cx="237.5"
     inkscape:cy="169"
     inkscape:window-x="-8"
     inkscape:window-y="-8"
     inkscape:window-maximized="1"
     inkscape:current-layer="Layer_1"
     fit-margin-top="0"
     fit-margin-left="0"
     fit-margin-right="0"
     fit-margin-bottom="0"
     showguides="false"
     inkscape:guide-bbox="true"
     showborder="true" /><path
     style="fill:#ea763b"
     d="m 278,302.9273395406277 -29.5,-8.8547586050813 -28,-8.7836356835131 -16.25,-6.5563189487629 -16.25,-6.5563189487629 0,4.0260593166826 0,4.0260593166826 5.0989444072764,5.8857870060637 5.0989444072764,5.8857870060636 -49.7529008970524,0 -49.75290089705246,0 -19.33801405112386,-10.5926197804541 -19.33801405112383,-10.5926197804542 -7.4263187272706,-14.1573802195458 -7.4263187272706,-14.1573802195459 -0.64959594588113,-11 -0.64959594588113,-11 2.57735278203522,-13.4338577647885 2.57735278203522,-13.4338577647886 3.24053243201638,-4.1287823959368 11.74053243201638,-14.8905495514789 8.5,-10.7617671555422 20,-10.0375687935792 20.45186748399629,-10.460793501062 -3.2781710988075,-7.9615008304579 -3.7300385828037,-7.5382761229748 -17.45368557101008,-8.371815073474 -17.45368557100997,-8.3718150734739 -22.21010107770349,-1.5547079862216 -23.01814333018259,-1.5547079862216 -0.80804225247903,0 0,-9.00000000000026 0,-9 0.75,-0.001921121455 16.75000000000001,-2.02405549630328 16,-2.02213437484828 17.99999999999996,-4.10215737361295 19.44482982054599,-4.87472884391633 1.444829820546,-0.77257147030338 3.30418682997019,-11.27560021626847 3.30418682997,-11.27560021626844 6.750983349484,-12.39037674783339 6.7509833494839,-12.39037674783334 14.5,-7.28806752900084 17.0483255825685,-7.90367366722291 2.5483255825684,-0.61560613822212 17.1317537235005,2.89103741241764 17.1317537235004,2.89103741241768 11.5824371569252,3.61571106969592 11.5824371569251,3.61571106969586 6.953408062338,13.88033705375899 6.953408062338,13.88033705375892 -3.3652349056158,17.3901800231378 -3.3652349056159,17.39018002313787 -9.5570163459075,19.09391689587357 -13.9716559014055,30.0767467385123 -4.4146395554981,10.9828298426389 14.5582206424437,-4.8771135401254 14.5582206424439,-4.8771135401253 23.0627456392456,-13.452344864466 23.0627456392456,-13.4523448644661 22.01737431497,-1.1008126440511 22.0173743149701,-1.1008126440512 16.9456322581055,3.5704889811899 16.9456322581056,3.5704889811899 2.0369934269243,1.796978930507 17.0369934269244,15.1514305524415 17.0716641064744,15.1840019646903 2.0716641064744,1.829550342756 15.4267351077384,6.0137602776164 15.4267351077385,6.0137602776164 1.0016007857871,-1.3387458833839 16.5016007857872,-21.1010950686679 15.5,-19.7623491852841 0.2716839283963,43.8305586373285 0.2716839283964,43.8305586373285 -2.0498971593261,24.921233105016 -2.0498971593261,24.9212331050164 -5.4376712658618,6.0787668949836 -10.7217867690701,11.8702904240802 -5.2841155032086,5.7915235290966 -22.4929690801547,8.4390389119689 -22.4929690801547,8.4390389119688 -47.0070309198453,2.0186687900327 z"
     id="path4969" /><path
     style="fill:#fefefe"
     d="m 149.8246950425283,110.6475625734981 -4.3246950425283,0.4187265506797 -4.0085774555573,-1.8761644661565 -4.0085774555572,-1.8761644661564 -3.2432830091161,-3.693895276439 -5.7485609285809,-8.63782328880743 -2.505277919465,-4.94392801236846 -1.4780805291657,-6.269156807125 -1.4780805291658,-6.269156807125 -0.014781086696,-6.68462393567441 -0.014781086696,-6.68462393567431 1.5155149383206,-7.20450758162155 1.5155149383206,-7.20450758162155 3.1616155366988,-5.93179824307658 3.1616155366988,-5.93179824307657 4.4363713691587,-3.9050502552908 4.4363713691587,-3.90505025529087 3.3864981558219,-0.63531088359452 3.3864981558219,-0.63531088359457 3.5897727989018,0.67344543650592 3.5897727989018,0.67344543650586 4.4102946684491,4.06526766969666 4.4102946684491,4.06526766969665 3.0073248720902,6.12257779305538 3.0073248720903,6.12257779305531 1.5886002362692,7.5 1.5886002362693,7.49999999999994 -0.5087444975555,8 -0.5087444975554,8 -2.097058217113,6.65167312947895 -2.0970582171131,6.65167312947898 -3.2401898610419,4.7763007098401 -3.2401898610419,4.77630070984006 -3.6753049574717,2.9364441720902 -3.6753049574718,2.9364441720901 z"
     id="path4973" /><path
     inkscape:connector-curvature="0"
     id="path4958"
     d="m 145.6353588792899,82 -1.2867308258709,0 -2.1981955689559,-2.33987195817986 -2.1981955689558,-2.33987195817991 -0.9761184577537,-3.40352615502576 -0.9761184577536,-3.40352615502582 0,-4.60737862156776 0,-4.60737862156775 1.1385231081687,-3.39922326522657 3.1743140267095,-5.64922326522657 3.1871628651218,-2.25 3.2298352974187,2.25 2.0784633508377,2.25 1.0902737414691,4 1.0958506758718,7.3071799468222 -1.0920420668588,7.66622025143026 -1.0976190012615,4.35904030460807 -1.9413361461581,2.08377974856974 -1.941336146158,2.08377974856973 z"
     style="fill:#000000"
     sodipodi:nodetypes="cccccccccccccccccccc" /></svg>